<?xml version="1.0" encoding="utf-8"?>
<!-- Generator: Adobe Illustrator 15.1.0, SVG Export Plug-In . SVG Version: 6.00 Build 0)  -->
<!DOCTYPE svg PUBLIC "-//W3C//DTD SVG 1.1//EN" "http://www.w3.org/Graphics/SVG/1.1/DTD/svg11.dtd">
<svg version="1.1" id="Layer_1" xmlns="http://www.w3.org/2000/svg" xmlns:xlink="http://www.w3.org/1999/xlink" x="0px" y="0px"
	 width="100px" height="75px" viewBox="0 0 100 75" enable-background="new 0 0 100 75" xml:space="preserve">
<path d="M4,48h52c1.745,0,3.214-1.125,3.761-2.684l0.015,0.005l14-40l-0.015-0.005C73.905,4.902,74,4.464,74,4c0-2.209-1.791-4-4-4
	H4C1.791,0,0,1.791,0,4v40C0,46.209,1.791,48,4,48z M53.162,40H8V8h56.362L53.162,40z"/>
<path d="M96,0H83c-1.75,0-3.222,1.131-3.765,2.697L79.22,2.691L62.151,52H4c-2.209,0-4,1.791-4,4s1.791,4,4,4h61
	c1.75,0,3.222-1.131,3.765-2.697l0.016,0.006L85.849,8H96c2.209,0,4-1.791,4-4S98.209,0,96,0z"/>
<circle cx="6" cy="69" r="6"/>
<circle cx="60" cy="69" r="6"/>
</svg>
