<?xml version="1.0" encoding="utf-8"?>
<!-- Generator: Adobe Illustrator 14.0.0, SVG Export Plug-In . SVG Version: 6.00 Build 43363)  -->
<!DOCTYPE svg PUBLIC "-//W3C//DTD SVG 1.0//EN" "http://www.w3.org/TR/2001/REC-SVG-20010904/DTD/svg10.dtd">
<svg version="1.0" id="Layer_1" xmlns="http://www.w3.org/2000/svg" xmlns:xlink="http://www.w3.org/1999/xlink" x="0px" y="0px"
	 width="100px" height="60.214px" viewBox="0 0 100 60.214" enable-background="new 0 0 100 60.214" xml:space="preserve">
<polygon points="18.054,40.151 24.19,29.31 29.618,5.521 29.622,5.523 31.587,7.985 26.534,30.228 20.222,41.375 18.054,40.151 "/>
<path d="M19.814,17.965c-1.865-0.792-4.051-2.646-4.031-5.817l0,0c-0.04-2.895,1.436-4.816,3.069-5.683l0,0
	c1.621-0.892,4.108-0.983,4.108-0.983l0,0c0.256,0,0.435,0.01,0.51,0.016l0,0l7.773,0.008l0.343,2.479h-8.255l-0.053-0.002
	c0,0.002-0.092-0.013-0.318-0.013l0,0c-0.603-0.005-1.907,0.106-2.896,0.669l0,0c-0.973,0.591-1.753,1.379-1.791,3.509l0,0
	c0.021,1.498,0.639,2.298,1.558,2.982l0,0c0.919,0.659,2.162,1.019,2.986,1.172l0,0c0.549,0.103,0.871,0.12,0.875,0.12l0,0
	l-0.151,2.485C23.461,18.9,21.705,18.805,19.814,17.965L19.814,17.965z"/>
<path d="M26.966,18.61l1.772-1.749l24.445,27.342l25.476-4.099L61.639,15.453H28.681v-2.487h34.265l20.007,28.976L52.31,46.867
	L26.966,18.61L26.966,18.61z M28.681,15.453v0.002V15.453L28.681,15.453z"/>
<polygon points="51.558,45.17 64.58,2.482 66.962,3.212 53.939,45.898 51.558,45.17 "/>
<path d="M0,41.025c0.001-10.601,8.592-19.191,19.192-19.192l0,0c10.599,0.001,19.188,8.592,19.191,19.192l0,0
	c-0.002,10.596-8.592,19.187-19.191,19.189l0,0C8.592,60.211,0.001,51.621,0,41.025L0,41.025z M2.49,41.025
	c0.017,9.221,7.479,16.682,16.702,16.701l0,0c9.221-0.02,16.683-7.48,16.697-16.701l0,0c-0.015-9.225-7.477-16.686-16.697-16.701
	l0,0C9.968,24.339,2.506,31.8,2.49,41.025L2.49,41.025z"/>
<circle cx="19.192" cy="41.025" r="2.697"/>
<path d="M61.617,41.025c0.002-10.599,8.595-19.191,19.192-19.194l0,0c10.598,0.003,19.188,8.596,19.19,19.194l0,0
	c-0.002,10.596-8.593,19.187-19.19,19.189l0,0C70.212,60.211,61.619,51.621,61.617,41.025L61.617,41.025z M64.108,41.025
	c0.016,9.223,7.478,16.684,16.701,16.699l0,0c9.22-0.016,16.686-7.477,16.701-16.699l0,0c-0.016-9.226-7.481-16.688-16.701-16.703
	l0,0C71.586,24.337,64.124,31.799,64.108,41.025L64.108,41.025z"/>
<circle cx="80.81" cy="41.025" r="2.697"/>
<circle cx="52.751" cy="44.707" r="2.698"/>
<polygon points="49.879,36.701 51.713,36.352 54.93,53.26 53.094,53.608 49.879,36.701 "/>
<polygon points="48.41,37.195 48.41,35.325 53.076,35.325 53.076,37.195 48.41,37.195 "/>
<polygon points="51.522,53.807 51.522,51.94 56.188,51.94 56.188,53.807 51.522,53.807 "/>
<path d="M59.167,1.141c0,0-1.619,0.324-1.619,1.294c0,0.97,0.967,1.188,1.458,1.133c0.226-0.025,5.824-0.163,8.412,0.485
	c2.591,0.647,3.885,1.134,4.694-0.16c0.809-1.296,0.971-4.046-2.427-3.887C66.284,0.17,59.167,1.141,59.167,1.141z"/>
</svg>
