<?xml version="1.0" encoding="utf-8"?>
<!-- Generator: Adobe Illustrator 15.1.0, SVG Export Plug-In . SVG Version: 6.00 Build 0)  -->
<!DOCTYPE svg PUBLIC "-//W3C//DTD SVG 1.1//EN" "http://www.w3.org/Graphics/SVG/1.1/DTD/svg11.dtd">
<svg version="1.1" id="Layer_1" xmlns="http://www.w3.org/2000/svg" xmlns:xlink="http://www.w3.org/1999/xlink" x="0px" y="0px"
	 width="100px" height="76.434px" viewBox="0 0 100 76.434" enable-background="new 0 0 100 76.434" xml:space="preserve">
<path fill="#CCCCCC" d="M98.574,67.99c-2.116-10.921-31.236-9.76-38.254-18.312c-1.48-1.805-1.48-1.805-0.488-8.507
	c1.693-7.502,3.229-2.846,5.65-17.81C67.518,10.798,63.177,0,50,0S32.483,10.798,34.517,23.365
	c2.422,14.963,3.956,10.307,5.651,17.809c0.992,6.702,0.992,6.702-0.488,8.507c-7.018,8.551-36.138,7.39-38.254,18.31
	C1.175,69.282,0,76.434,0,76.434h100C100,76.434,98.825,69.282,98.574,67.99z"/>
</svg>
